<?xml version="1.0" standalone="no"?>
<!DOCTYPE svg PUBLIC "-//W3C//DTD SVG 20010904//EN"
 "http://www.w3.org/TR/2001/REC-SVG-20010904/DTD/svg10.dtd">
<svg version="1.0" xmlns="http://www.w3.org/2000/svg"
 width="225.000000pt" height="225.000000pt" viewBox="0 0 225.000000 225.000000"
 preserveAspectRatio="xMidYMid meet">

<g transform="translate(0.000000,225.000000) scale(0.100000,-0.100000)"
fill="#000000" stroke="none">
<path d="M120 1370 c0 -5 5 -10 11 -10 5 0 7 5 4 10 -3 6 -8 10 -11 10 -2 0
-4 -4 -4 -10z"/>
<path d="M2103 1359 c1 -4 -7 -15 -18 -24 -20 -16 -20 -16 1 -6 30 14 48 38
29 38 -7 0 -13 -4 -12 -8z"/>
<path d="M198 1353 c6 -2 10 -9 7 -14 -4 -5 1 -6 10 -2 13 5 14 7 3 14 -7 5
-17 8 -23 8 -5 0 -4 -3 3 -6z"/>
<path d="M140 1346 c0 -2 8 -10 18 -17 15 -13 16 -12 3 4 -13 16 -21 21 -21
13z"/>
<path d="M1191 1334 c0 -11 3 -14 6 -6 3 7 2 16 -1 19 -3 4 -6 -2 -5 -13z"/>
<path d="M2019 1323 c-13 -16 -12 -17 4 -4 9 7 17 15 17 17 0 8 -8 3 -21 -13z"/>
<path d="M1001 1304 c0 -11 3 -14 6 -6 3 7 2 16 -1 19 -3 4 -6 -2 -5 -13z"/>
<path d="M1297 1269 c4 -13 8 -18 11 -10 2 7 -1 18 -6 23 -8 8 -9 4 -5 -13z"/>
<path d="M1457 1270 c3 -11 7 -20 9 -20 2 0 4 9 4 20 0 11 -4 20 -9 20 -5 0
-7 -9 -4 -20z"/>
<path d="M1924 1278 c4 -29 16 -38 37 -27 12 6 18 13 15 16 -3 3 -12 0 -21 -7
-8 -7 -16 -10 -16 -6 -1 3 -2 10 -3 15 0 5 -4 12 -8 16 -3 4 -6 1 -4 -7z"/>
<path d="M1970 1285 c0 -7 30 -13 34 -7 3 4 -4 9 -15 9 -10 1 -19 0 -19 -2z"/>
<path d="M1095 1260 c-4 -12 -5 -24 -2 -27 3 -2 8 5 12 17 4 12 5 24 2 27 -3
2 -8 -5 -12 -17z"/>
<path d="M1205 1255 c3 -16 6 -43 6 -60 l0 -30 9 28 c6 19 4 38 -6 60 l-15 32
6 -30z"/>
<path d="M1490 1273 c0 -6 8 -17 18 -24 16 -13 16 -13 2 6 -8 11 -16 22 -17
24 -2 2 -3 0 -3 -6z"/>
<path d="M1854 1255 c24 -18 42 -19 52 -4 4 8 0 9 -15 4 -12 -4 -21 -2 -21 4
0 6 -8 11 -17 11 -16 -1 -16 -2 1 -15z"/>
<path d="M305 1240 c4 -6 11 -10 17 -10 5 0 21 -9 35 -20 15 -11 28 -18 31
-15 3 3 -3 12 -14 20 -25 19 -77 37 -69 25z"/>
<path d="M1291 1224 c0 -11 3 -14 6 -6 3 7 2 16 -1 19 -3 4 -6 -2 -5 -13z"/>
<path d="M1477 1223 c3 -7 6 -13 8 -13 2 0 5 6 8 13 3 8 -1 14 -8 14 -7 0 -11
-6 -8 -14z"/>
<path d="M1847 1225 c3 -8 9 -12 14 -9 12 7 11 11 -5 17 -10 4 -13 1 -9 -8z"/>
<path d="M1889 1219 c-23 -19 -23 -20 -2 -10 12 6 25 16 28 21 10 16 -1 12
-26 -11z"/>
<path d="M981 1214 c0 -11 3 -14 6 -6 3 7 2 16 -1 19 -3 4 -6 -2 -5 -13z"/>
<path d="M1112 1195 c0 -16 2 -22 5 -12 2 9 2 23 0 30 -3 6 -5 -1 -5 -18z"/>
<path d="M1497 1198 c-4 -13 -1 -26 6 -30 7 -4 76 -8 155 -8 109 0 150 4 172
15 34 18 39 25 11 18 -10 -3 -22 0 -25 6 -4 5 -13 8 -21 4 -21 -8 -19 -24 3
-16 10 4 13 2 7 -3 -5 -5 -75 -8 -153 -6 -119 3 -143 6 -138 17 3 8 1 17 -3
20 -5 2 -11 -5 -14 -17z"/>
<path d="M435 1196 c-17 -12 -18 -17 -7 -28 8 -8 12 -9 10 -1 -3 11 1 13 23
13 8 0 8 -5 -1 -15 -9 -11 -9 -15 -1 -15 7 0 17 -5 24 -10 7 -6 21 -17 31 -24
19 -13 18 -14 -12 -30 -18 -9 -30 -21 -27 -25 7 -12 -22 -34 -34 -27 -11 7
-24 0 -214 -112 -117 -68 -128 -77 -125 -101 2 -14 8 -25 15 -24 7 2 10 -3 8
-10 -3 -6 52 -109 123 -227 92 -155 133 -216 148 -218 16 -2 187 92 374 206
19 12 38 22 43 22 4 0 7 -99 7 -219 0 -188 2 -222 16 -236 23 -23 546 -22 569
1 22 23 23 454 0 454 -8 0 -15 5 -15 10 0 7 -6 7 -19 0 -11 -5 -30 -10 -43 -9
-22 0 -22 1 -3 9 17 7 17 9 3 9 -30 1 -21 14 47 66 35 28 64 56 65 63 0 6 6
12 13 12 6 0 32 18 56 40 24 22 45 40 47 40 3 0 129 118 221 207 31 31 32 33
14 43 -26 13 -318 13 -326 0 -9 -14 -18 -13 -41 6 -18 15 -18 15 3 5 32 -16
41 -13 17 7 -11 9 -29 40 -40 67 -16 42 -19 46 -22 25 -2 -14 -26 -135 -53
-270 -54 -269 -64 -292 -113 -257 -19 14 -33 79 -56 264 -7 56 -16 101 -19 99
-3 -2 -7 28 -8 67 -2 39 -8 76 -14 81 -9 8 -10 5 -6 -12 3 -14 1 -20 -6 -15
-7 4 -8 0 -3 -12 5 -15 4 -16 -9 -5 -12 10 -15 9 -15 -6 0 -14 -2 -16 -9 -6
-7 11 -9 11 -14 -2 -9 -23 -345 -24 -353 -1 -8 21 -34 0 -34 -26 0 -11 -4 -19
-10 -19 -19 0 -10 35 15 63 14 15 21 27 15 27 -5 0 -10 5 -10 11 0 5 4 8 9 4
5 -3 12 -1 16 5 4 6 60 10 141 10 74 0 134 3 134 8 0 4 -58 7 -128 7 -95 0
-133 -4 -145 -14 -21 -16 -23 2 -3 22 12 12 8 13 -25 13 -32 -1 -39 -5 -39
-21 0 -17 2 -17 10 -5 5 8 10 11 10 5 0 -5 5 -3 10 5 8 13 10 12 10 -2 0 -10
-4 -18 -10 -18 -5 0 -10 -10 -10 -21 0 -16 -3 -19 -13 -11 -7 6 -49 12 -92 14
-77 3 -80 4 -80 27 0 30 -15 36 -40 17z m965 -66 c0 -5 -5 -10 -11 -10 -5 0
-7 5 -4 10 3 6 8 10 11 10 2 0 4 -4 4 -10z m-840 -55 c0 -7 -7 -15 -14 -18
-10 -4 -13 -1 -9 9 4 10 0 12 -11 8 -9 -3 -13 -10 -10 -15 3 -5 -2 -6 -11 -3
-18 7 -15 12 17 29 26 13 38 10 38 -10z m545 -6 c11 -17 -1 -21 -15 -4 -8 9
-8 15 -2 15 6 0 14 -5 17 -11z m295 7 c0 -3 -4 -8 -10 -11 -5 -3 -10 -1 -10 4
0 6 5 11 10 11 6 0 10 -2 10 -4z m-477 -13 c-24 -2 -62 -2 -85 0 -24 2 -5 4
42 4 47 0 66 -2 43 -4z m130 0 c-7 -2 -19 -2 -25 0 -7 3 -2 5 12 5 14 0 19 -2
13 -5z m734 -19 c-3 -3 -12 -4 -19 -1 -8 3 -5 6 6 6 11 1 17 -2 13 -5z m-1307
-24 c0 -5 -5 -10 -11 -10 -5 0 -7 5 -4 10 3 6 8 10 11 10 2 0 4 -4 4 -10z
m-65 -14 c-11 -7 -31 -16 -45 -20 -18 -5 -15 -1 10 13 41 22 63 27 35 7z m-98
-60 c0 -8 -6 -12 -15 -9 -11 5 -11 7 0 14 7 5 13 9 14 9 0 0 1 -6 1 -14z m966
-376 c-3 -11 -9 -17 -15 -14 -5 3 -4 12 3 20 16 19 18 18 12 -6z"/>
<path d="M778 1203 c7 -3 16 -2 19 1 4 3 -2 6 -13 5 -11 0 -14 -3 -6 -6z"/>
<path d="M1077 1181 c-8 -39 -6 -44 8 -27 6 6 8 22 5 36 -6 24 -7 23 -13 -9z"/>
<path d="M1260 1168 c-22 -24 -26 -38 -10 -38 6 0 10 -10 10 -22 0 -17 -3 -19
-9 -10 -14 22 -23 -32 -15 -91 7 -49 8 -50 16 -22 5 17 6 38 4 47 -2 9 1 19 6
20 5 2 10 29 10 61 0 31 5 54 9 51 5 -3 9 2 9 10 0 21 -5 20 -30 -6z"/>
<path d="M1226 1164 c-8 -20 -8 -69 0 -62 6 7 16 78 10 78 -2 0 -7 -7 -10 -16z"/>
<path d="M445 1050 c-3 -5 -2 -10 4 -10 5 0 13 5 16 10 3 6 2 10 -4 10 -5 0
-13 -4 -16 -10z"/>
<path d="M2074 705 c-9 -14 -15 -27 -13 -30 3 -2 12 10 21 26 21 36 15 39 -8
4z"/>
<path d="M2020 679 c0 -5 5 -7 10 -4 6 3 10 8 10 11 0 2 -4 4 -10 4 -5 0 -10
-5 -10 -11z"/>
<path d="M1371 637 c-1 -10 -8 -20 -16 -23 -8 -4 -12 -10 -9 -16 8 -13 37 29
31 45 -3 7 -6 4 -6 -6z"/>
<path d="M1420 619 c0 -5 5 -7 10 -4 6 3 10 8 10 11 0 2 -4 4 -10 4 -5 0 -10
-5 -10 -11z"/>
<path d="M2023 615 c-7 -12 -58 -15 -301 -17 -160 -2 -292 -6 -292 -9 0 -13
51 -40 63 -33 7 4 9 3 4 -1 -9 -11 124 -96 141 -90 7 3 11 1 8 -3 -3 -5 12
-18 32 -29 20 -11 64 -37 97 -57 33 -20 69 -35 80 -34 26 4 116 155 109 183
-4 15 -3 17 4 6 8 -11 14 -7 27 20 10 19 25 44 33 57 8 12 12 22 9 22 -3 0
-10 -7 -14 -15z m-499 -61 c3 -8 2 -12 -4 -9 -6 3 -10 10 -10 16 0 14 7 11 14
-7z m41 6 c8 -13 -5 -13 -25 0 -13 8 -13 10 2 10 9 0 20 -4 23 -10z m35 0 c0
-5 -2 -10 -4 -10 -3 0 -8 5 -11 10 -3 6 -1 10 4 10 6 0 11 -4 11 -10z m333 -7
c-5 -12 -3 -14 7 -8 9 6 11 4 5 -4 -5 -9 -11 -9 -17 -3 -6 6 -7 15 -4 21 11
17 16 13 9 -6z m-337 -46 c2 -13 -2 -15 -16 -7 -10 5 -20 16 -23 24 -5 12 -1
13 15 7 12 -4 22 -15 24 -24z"/>
<path d="M1405 590 c-3 -5 -1 -10 4 -10 6 0 11 5 11 10 0 6 -2 10 -4 10 -3 0
-8 -4 -11 -10z"/>
</g>
</svg>
